<svg width="40" height="41" viewBox="0 0 40 41" fill="none" xmlns="http://www.w3.org/2000/svg">
<path d="M36.6667 20.5C36.6667 22.6887 36.2356 24.856 35.398 26.8781C34.5604 28.9001 33.3328 30.7375 31.7851 32.2851C30.2375 33.8328 28.4001 35.0604 26.3781 35.898C24.356 36.7356 22.1887 37.1667 20 37.1667C17.8113 37.1667 15.644 36.7356 13.6219 35.898C11.5998 35.0604 9.76253 33.8327 8.21489 32.2851C6.66724 30.7375 5.43959 28.9001 4.60201 26.8781C3.76443 24.856 3.33333 22.6887 3.33333 20.5C3.33333 18.3113 3.76443 16.144 4.60201 14.1219C5.43959 12.0998 6.66725 10.2625 8.21489 8.71488C9.76253 7.16724 11.5999 5.93958 13.6219 5.102C15.644 4.26442 17.8113 3.83333 20 3.83333C22.1887 3.83333 24.356 4.26442 26.3781 5.102C28.4002 5.93958 30.2375 7.16724 31.7851 8.71488C33.3328 10.2625 34.5604 12.0998 35.398 14.1219C36.2356 16.144 36.6667 18.3113 36.6667 20.5L36.6667 20.5Z" stroke="white" stroke-width="1.5"/>
<path d="M26.6667 20.5C26.6667 22.6887 26.4942 24.856 26.1592 26.8781C25.8242 28.9001 25.3331 30.7375 24.714 32.2851C24.095 33.8328 23.3601 35.0604 22.5512 35.898C21.7424 36.7356 20.8755 37.1667 20 37.1667C19.1245 37.1667 18.2576 36.7356 17.4488 35.898C16.6399 35.0604 15.905 33.8327 15.286 32.2851C14.6669 30.7375 14.1758 28.9001 13.8408 26.8781C13.5058 24.856 13.3333 22.6887 13.3333 20.5C13.3333 18.3113 13.5058 16.144 13.8408 14.1219C14.1758 12.0998 14.6669 10.2625 15.286 8.71488C15.905 7.16724 16.6399 5.93958 17.4488 5.102C18.2576 4.26442 19.1245 3.83333 20 3.83333C20.8755 3.83333 21.7424 4.26442 22.5512 5.102C23.3601 5.93958 24.095 7.16724 24.714 8.71488C25.3331 10.2625 25.8242 12.0998 26.1592 14.1219C26.4942 16.144 26.6667 18.3113 26.6667 20.5L26.6667 20.5Z" stroke="white" stroke-width="1.5"/>
<path d="M3.33333 20.5H36.6667" stroke="white" stroke-width="1.5" stroke-linecap="round"/>
</svg>
