<svg width="52" height="37" viewBox="0 0 52 37" fill="none" xmlns="http://www.w3.org/2000/svg">
<rect y="0.5" width="52" height="36" rx="18" fill="#292929"/>
<path d="M17.6667 18.6699C17.6667 16.7629 17.6667 15.8094 18.0993 15.0189C18.532 14.2285 19.3224 13.7379 20.9034 12.7568L22.57 11.7224C24.2411 10.6852 25.0767 10.1667 26 10.1667C26.9233 10.1667 27.7588 10.6852 29.43 11.7224L31.0966 12.7568C32.6775 13.7379 33.468 14.2285 33.9007 15.0189C34.3333 15.8094 34.3333 16.7629 34.3333 18.6699V19.9375C34.3333 23.1882 34.3333 24.8136 33.357 25.8234C32.3807 26.8333 30.8094 26.8333 27.6667 26.8333H24.3333C21.1906 26.8333 19.6193 26.8333 18.643 25.8234C17.6667 24.8136 17.6667 23.1882 17.6667 19.9375V18.6699Z" stroke="white" stroke-width="1.5"/>
<path d="M26 21L26 23.5" stroke="white" stroke-width="1.5" stroke-linecap="round"/>
</svg>
