<svg width="20" height="21" viewBox="0 0 20 21" fill="none" xmlns="http://www.w3.org/2000/svg">
<path d="M1.66666 10.6699C1.66666 8.7629 1.66666 7.80939 2.09932 7.01894C2.53199 6.2285 3.32244 5.73792 4.90335 4.75676L6.57002 3.72238C8.24115 2.68523 9.07671 2.16666 9.99999 2.16666C10.9233 2.16666 11.7588 2.68523 13.43 3.72238L15.0966 4.75676C16.6775 5.73792 17.468 6.2285 17.9007 7.01894C18.3333 7.80939 18.3333 8.7629 18.3333 10.6699V11.9375C18.3333 15.1882 18.3333 16.8136 17.357 17.8234C16.3807 18.8333 14.8094 18.8333 11.6667 18.8333H8.33332C5.19063 18.8333 3.61928 18.8333 2.64297 17.8234C1.66666 16.8136 1.66666 15.1882 1.66666 11.9375V10.6699Z" stroke="white" stroke-width="1.5"/>
<path d="M10 13L10 15.5" stroke="white" stroke-width="1.5" stroke-linecap="round"/>
</svg>
