<svg width="44" height="43" viewBox="0 0 44 43" fill="none" xmlns="http://www.w3.org/2000/svg">
<path d="M25.8 33.25C22.3 31.95 18.7 31.75 15.4 32.65C13.1 33.25 10.9 34.45 8.89999 35.95L7.49997 37.15L7.09998 37.55L7.99997 38.35C8.09997 38.35 8.09998 38.45 8.19998 38.55C8.39998 38.75 8.59999 38.85 8.89999 39.05L9.49997 39.45L10.1 38.95C10.2 38.85 10.4 38.65 10.6 38.55C12.4 37.05 14.4 36.05 16.5 35.55C19.2 34.85 22.1 34.95 25 36.05C27.4 36.95 32.3 38.05 38.2 35.55L38.4 35.45L38.7 35.15C38.7 35.05 38.8 35.05 38.9 34.95C39.4 34.35 39.9 33.75 40.3 33.05L42.3 29.95L39.1 31.75C34.4 34.35 30.1 34.85 25.8 33.25Z" fill="white"/>
<path d="M12.1 22.45C14.8 21.75 17.7 21.85 20.6 22.95C23.8 24.15 32 25.85 41.2 17.55L42.7 16.05L42.8 15.95L43.2 15.55L43 15.05C42.9 14.65 42.7 14.15 42.5 13.65L42 12.25L41 13.25C40.9 13.45 40.7 13.55 40.5 13.75C36.1 18.25 29.3 22.85 21.5 20.05C18 18.75 14.4 18.55 11.1 19.45C7.90001 20.35 5.1 22.05 2.5 24.45V24.35L1 25.95C1 26.05 0.900018 26.05 0.800018 26.15L0.5 26.45L0.600006 26.85C0.700006 27.35 0.9 27.85 1 28.35L1.60001 29.95L2.60001 28.65C2.70001 28.45 2.9 28.35 3 28.15C5.1 26.25 8.00001 23.55 12.1 22.45Z" fill="white"/>
<path d="M2.40002 20.65C4.70002 18.25 7.30001 16.75 10.1 15.95C12.8 15.25 15.7 15.35 18.6 16.45C27.6 19.75 35.4 14.35 38.8 11.45L40.1 10.15L40.6 9.74997L40.2 9.14999C39.9 8.84999 39.7 8.44999 39.4 8.04999L38.8 7.24997L38.1 7.94998C38 8.04998 37.8 8.24998 37.7 8.34998C33.5 12.35 27 16.45 19.6 13.65C16.1 12.35 12.5 12.15 9.20001 13.05C7.10001 13.65 5.10001 14.65 3.10001 15.95L1 17.65C0.8 17.85 0.7 17.95 0.5 18.15L0.300018 18.35V18.65C0.200018 19.35 0.200006 20.05 0.100006 20.65L0 23.15L1.70001 21.35C1.90001 21.15 2.10002 20.85 2.40002 20.65Z" fill="white"/>
<path d="M28.7 40.05L28.5 40.65L28.7 40.05C28.4 39.95 28.2 39.85 27.9 39.75C24.4 38.45 20.8 38.25 17.5 39.15C16.8 39.35 16.1 39.55 15.4 39.85L13 40.95L12.4 41.25L14.4 41.95C15 42.15 15.6 42.35 16.2 42.55L16.5 42.65L16.8 42.55C17.1 42.45 17.4 42.25 17.7 42.25C17.9 42.25 18.1 42.15 18.3 42.05C20.7 41.45 23.3 41.45 26.1 42.35C26.4 42.45 26.6 42.55 26.9 42.65L27.4 42.85L27.7 42.75C28.4 42.55 29.2 42.35 29.8 42.05L32.6 41.05L29.7 40.35C29.4 40.25 29 40.15 28.7 40.05Z" fill="white"/>
<path d="M44 19.35L42.5 20.85C42.3 21.05 42.1001 21.25 41.9001 21.45C37.8001 25.35 31.2 29.55 23.8 26.75C20.3 25.45 16.7001 25.25 13.4001 26.15C10.3001 27.05 7.50003 28.65 5.00003 31.05L3.70004 32.45L3.30005 32.95L3.70004 33.55C4.00004 33.95 4.20005 34.25 4.40005 34.65L5.00003 35.55L5.70004 34.65C5.80004 34.55 6.00004 34.35 6.10004 34.25C8.50004 31.65 11.1 30.05 14.1 29.25C16.8 28.55 19.7 28.65 22.6 29.75C25.1 30.65 27.7 30.95 30.3 30.65C34.9 30.15 39.5001 27.55 42.9001 24.65C43.1001 24.45 43.3 24.35 43.5 24.15L43.8 23.85V23.55C43.8 22.95 43.9001 22.25 43.9001 21.65L44 19.35Z" fill="white"/>
<path d="M6 10.15L5.70001 9.54999L6 10.15C6.6 9.84999 7.30002 9.64998 7.90002 9.44998C10.6 8.74998 13.5 8.84998 16.4 9.94998C18.3 10.65 20.2 10.95 22.3 10.95C26.5 10.95 30.7 9.44999 34.6 6.54999L36.1 5.34998L36.6 4.94998L35.7 4.24997C35.4 3.94997 35 3.64998 34.6 3.44998L34 3.04999L33.5 3.44998C33.3 3.54998 33.2 3.74998 33 3.84998C27.7 7.84998 22.4 8.94999 17.4 7.04999C13.8 5.74999 10.2 5.44999 6.60001 6.54999C6.30001 6.64999 6.00001 6.74998 5.60001 6.84998L5.40002 6.94998L5.10001 7.24997C5.10001 7.34997 5.00002 7.34998 4.90002 7.44998C4.50002 8.04998 4.00001 8.54999 3.60001 9.14999L1.70001 12.05L4.80002 10.45C5.30002 10.45 5.7 10.25 6 10.15Z" fill="white"/>
<path d="M14.2 3.34998L14.5 3.44998C15.8 3.94998 17.8 4.44998 20.3 4.44998C22.9 4.44998 25.4 3.84998 27.9 2.84998L31 1.34998L28.9 0.649994C28.3 0.449994 27.7 0.249994 27 0.149994H26.7L26.4 0.249969C26.1 0.349969 25.8 0.549994 25.5 0.649994C22.5 1.74999 19.5 1.94999 16.6 1.14999C16.3 1.04999 16 0.949976 15.7 0.849976L15.4 0.749969L15.1 0.849976C14.5 1.04998 13.9 1.24999 13.3 1.54999L11 2.54999L13.4 3.24997C13.6 3.14997 13.9 3.24998 14.2 3.34998Z" fill="white"/>
</svg>
